<?xml version="1.0" encoding="UTF-8"?>
<!DOCTYPE svg PUBLIC "-//W3C//DTD SVG 1.1//EN" "http://www.w3.org/Graphics/SVG/1.1/DTD/svg11.dtd">
<svg xmlns="http://www.w3.org/2000/svg" version="1.1" width="967px" height="196px" style="shape-rendering:geometricPrecision; text-rendering:geometricPrecision; image-rendering:optimizeQuality; fill-rule:evenodd; clip-rule:evenodd" xmlns:xlink="http://www.w3.org/1999/xlink">
<g><path style="opacity:0.854" fill="#fefefe" d="M 20.5,58.5 C 20.5,56.8333 20.5,55.1667 20.5,53.5C 20.8966,52.475 21.5632,52.3083 22.5,53C 26.4702,59.2975 31.9702,63.7975 39,66.5C 39.3333,53.8333 39.6667,41.1667 40,28.5C 57.7597,27.6738 75.5931,27.1738 93.5,27C 94.8323,19.4853 93.1656,12.6519 88.5,6.5C 89.1709,5.05421 90.3376,4.38754 92,4.5C 107.622,12.2925 113.955,24.9592 111,42.5C 108.043,54.2831 101.21,62.9498 90.5,68.5C 84.3278,65.4999 78.4944,66.1665 73,70.5C 68.3931,83.5883 73.2264,89.4216 87.5,88C 93.2175,85.4136 96.0508,80.9136 96,74.5C 112.4,65.6221 121.233,51.9554 122.5,33.5C 151.263,48.1358 160.43,70.8024 150,101.5C 141.062,118.901 126.895,129.401 107.5,133C 85.5068,134.076 63.5068,134.409 41.5,134C 39.5357,123.088 38.8691,111.922 39.5,100.5C 41.1992,100.34 42.8659,100.506 44.5,101C 49.3964,104.3 54.7297,106.633 60.5,108C 80.1366,112.552 98.3032,109.385 115,98.5C 122.258,101.052 128.258,99.3857 133,93.5C 133.667,90.5 133.667,87.5 133,84.5C 125.721,75.5657 118.055,75.2324 110,83.5C 111.575,91.1904 108.741,96.3571 101.5,99C 74.2063,107.676 50.5396,101.843 30.5,81.5C 27.7497,77.6682 25.2497,73.6682 23,69.5C 21.4383,65.9855 20.605,62.3189 20.5,58.5 Z"/></g>
<g><path style="opacity:0.794" fill="#fdfdfd" d="M 491.5,41.5 C 503.17,41.6679 507.336,47.3345 504,58.5C 498,63.8333 492,63.8333 486,58.5C 483.15,51.2192 484.983,45.5525 491.5,41.5 Z"/></g>
<g><path style="opacity:0.906" fill="#fcfcfc" d="M 286.5,44.5 C 291.43,44.1975 296.263,44.5308 301,45.5C 301.5,52.8258 301.666,60.1591 301.5,67.5C 296.924,65.3569 293.924,66.6902 292.5,71.5C 294.407,76.3124 296.574,80.979 299,85.5C 302.178,101.317 296.345,112.15 281.5,118C 276.011,118.932 270.677,118.432 265.5,116.5C 264.167,109.167 264.167,101.833 265.5,94.5C 269.69,97.6166 273.023,96.9499 275.5,92.5C 273.336,87.505 271.17,82.505 269,77.5C 265.96,61.5707 271.794,50.5707 286.5,44.5 Z"/></g>
<g><path style="opacity:0.892" fill="#fcfcfc" d="M 708.5,84.5 C 707.243,85.6226 707.576,86.2893 709.5,86.5C 713.097,95.2064 719.43,98.0397 728.5,95C 729.579,94.044 730.745,93.2106 732,92.5C 733.427,88.6113 734.927,84.7779 736.5,81C 743.844,80.5482 751.177,80.7149 758.5,81.5C 757.254,104.412 745.254,116.745 722.5,118.5C 699.186,117.186 686.853,104.853 685.5,81.5C 688.663,54.8429 703.663,42.6763 730.5,45C 746.713,49.3802 756.047,59.8802 758.5,76.5C 751.263,76.9257 744.096,77.5923 737,78.5C 734.679,75.2541 732.179,72.0874 729.5,69C 715.762,64.5375 708.762,69.7041 708.5,84.5 Z"/></g>
<g><path style="opacity:0.849" fill="#fefefe" d="M 365.5,45.5 C 372.5,45.5 379.5,45.5 386.5,45.5C 386.5,69.1667 386.5,92.8333 386.5,116.5C 379.5,116.5 372.5,116.5 365.5,116.5C 365.5,92.8333 365.5,69.1667 365.5,45.5 Z"/></g>
<g><path style="opacity:0.922" fill="#f2f2f2" d="M 447.5,45.5 C 454.5,45.5 461.5,45.5 468.5,45.5C 468.5,52.1667 468.5,58.8333 468.5,65.5C 471.167,65.5 473.833,65.5 476.5,65.5C 476.5,72.8333 476.5,80.1667 476.5,87.5C 473.833,87.5 471.167,87.5 468.5,87.5C 468.291,93.5848 471.291,96.2515 477.5,95.5C 477.831,102.863 477.497,110.197 476.5,117.5C 462.395,117.207 452.895,110.54 448,97.5C 447.5,80.1699 447.333,62.8365 447.5,45.5 Z"/></g>
<g><path style="opacity:0.253" fill="#393939" d="M 20.5,53.5 C 20.5,55.1667 20.5,56.8333 20.5,58.5C 19.3509,58.2089 18.6842,57.3756 18.5,56C 18.6842,54.6244 19.3509,53.7911 20.5,53.5 Z"/></g>
<g><path style="opacity:0.872" fill="#fcfcfc" d="M 187.5,63.5 C 209.953,61.9588 220.953,72.2921 220.5,94.5C 210.494,94.6665 200.494,94.4998 190.5,94C 189.718,91.2595 189.218,88.4262 189,85.5C 186.592,91.888 188.425,96.5547 194.5,99.5C 196.774,99.0298 198.774,98.0298 200.5,96.5C 203.764,100.687 207.264,104.687 211,108.5C 211.781,109.944 211.614,111.277 210.5,112.5C 197.903,119.8 185.903,118.967 174.5,110C 162.895,94.8285 164.228,80.8285 178.5,68C 181.437,66.1991 184.437,64.6991 187.5,63.5 Z M 190.5,83.5 C 193.227,79.7695 196.227,79.6028 199.5,83C 196.518,83.498 193.518,83.6646 190.5,83.5 Z"/></g>
<g><path style="opacity:0.902" fill="#fdfdfd" d="M 325.5,63.5 C 351.108,62.9379 361.941,75.2712 358,100.5C 351.357,114.072 340.524,119.572 325.5,117C 305.486,108.961 299.986,95.1273 309,75.5C 313.281,69.7045 318.781,65.7045 325.5,63.5 Z M 330.5,84.5 C 336.346,84.1764 338.846,86.8431 338,92.5C 333.081,98.0735 328.915,97.4068 325.5,90.5C 326.497,87.845 328.164,85.845 330.5,84.5 Z"/></g>
<g><path style="opacity:0.898" fill="#fdfdfd" d="M 564.5,83.5 C 563.243,84.6226 563.576,85.2893 565.5,85.5C 566.72,101.452 559.72,111.952 544.5,117C 527.441,119.581 516.275,112.748 511,96.5C 508.73,82.8764 513.563,72.7097 525.5,66C 544.26,59.623 557.26,65.4563 564.5,83.5 Z M 536.5,84.5 C 544.196,85.6066 545.863,89.1066 541.5,95C 536.322,97.5776 532.989,96.0776 531.5,90.5C 532.21,87.5865 533.876,85.5865 536.5,84.5 Z"/></g>
<g><path style="opacity:0.884" fill="#fdfdfd" d="M 587.5,63.5 C 602.218,61.593 611.718,67.593 616,81.5C 616.5,93.1619 616.667,104.829 616.5,116.5C 609.5,116.5 602.5,116.5 595.5,116.5C 595.666,106.161 595.5,95.828 595,85.5C 593.887,84.2889 592.72,84.2889 591.5,85.5C 590.501,95.8119 590.168,106.145 590.5,116.5C 583.833,116.5 577.167,116.5 570.5,116.5C 570.333,104.495 570.5,92.4954 571,80.5C 574.019,72.3156 579.519,66.649 587.5,63.5 Z"/></g>
<g><path style="opacity:0.891" fill="#fdfdfd" d="M 782.5,63.5 C 806.322,62.4876 817.488,73.8209 816,97.5C 808.448,115.688 795.281,121.522 776.5,115C 761.79,105.53 757.957,92.6967 765,76.5C 769.603,70.3812 775.437,66.0478 782.5,63.5 Z M 787.5,84.5 C 794.596,85.3807 796.596,88.8807 793.5,95C 788.303,97.4049 784.636,95.9049 782.5,90.5C 783.497,87.845 785.164,85.845 787.5,84.5 Z"/></g>
<g><path style="opacity:0.873" fill="#fefefe" d="M 851.5,64.5 C 850.57,71.7771 850.236,79.1104 850.5,86.5C 846.913,84.5264 844.746,85.5264 844,89.5C 843.5,98.4938 843.334,107.494 843.5,116.5C 836.5,116.5 829.5,116.5 822.5,116.5C 822.333,104.829 822.5,93.1619 823,81.5C 827.15,66.6804 836.65,61.0137 851.5,64.5 Z"/></g>
<g><path style="opacity:0.89" fill="#fbfbfb" d="M 874.5,63.5 C 900.12,62.9487 910.953,75.2821 907,100.5C 900.61,113.614 890.11,119.281 875.5,117.5C 875.808,123.425 875.475,129.259 874.5,135C 867.842,135.5 861.175,135.666 854.5,135.5C 854.053,117.111 854.553,98.778 856,80.5C 859.833,72.1621 866,66.4954 874.5,63.5 Z M 879.5,84.5 C 886.644,85.113 888.644,88.613 885.5,95C 878.189,97.6037 875.023,95.1037 876,87.5C 877.145,86.3636 878.312,85.3636 879.5,84.5 Z"/></g>
<g><path style="opacity:0.882" fill="#fcfcfc" d="M 264.5,64.5 C 264.263,65.791 264.596,66.791 265.5,67.5C 258.283,84.9314 250.283,101.931 241.5,118.5C 232.95,100.734 224.95,82.7339 217.5,64.5C 224.2,64.17 230.866,64.5033 237.5,65.5C 238.903,68.8752 240.403,72.2086 242,75.5C 243.597,72.2086 245.097,68.8752 246.5,65.5C 252.463,64.5041 258.463,64.1707 264.5,64.5 Z"/></g>
<g><path style="opacity:0.063" fill="#575757" d="M 264.5,64.5 C 265.267,65.172 265.934,66.0053 266.5,67C 266.272,67.3988 265.938,67.5654 265.5,67.5C 264.596,66.791 264.263,65.791 264.5,64.5 Z"/></g>
<g><path style="opacity:0.847" fill="#fefefe" d="M 484.5,64.5 C 491.5,64.5 498.5,64.5 505.5,64.5C 505.5,81.8333 505.5,99.1667 505.5,116.5C 498.5,116.5 491.5,116.5 484.5,116.5C 484.5,99.1667 484.5,81.8333 484.5,64.5 Z"/></g>
<g><path style="opacity:0.884" fill="#fdfdfd" d="M 395.5,65.5 C 402.5,65.5 409.5,65.5 416.5,65.5C 416.334,75.8387 416.5,86.172 417,96.5C 418.113,97.7111 419.28,97.7111 420.5,96.5C 421.499,86.1881 421.832,75.8548 421.5,65.5C 428.167,65.5 434.833,65.5 441.5,65.5C 441.943,78.5742 441.443,91.5742 440,104.5C 432.285,118.073 421.118,121.906 406.5,116C 400.597,112.084 397.097,106.584 396,99.5C 395.5,88.1716 395.333,76.8382 395.5,65.5 Z"/></g>
<g><path style="opacity:0.881" fill="#f8f8f8" d="M 645.5,65.5 C 650.099,65.2 654.599,65.5333 659,66.5C 659.831,73.1915 659.664,79.8582 658.5,86.5C 656.618,87.0933 654.785,87.7599 653,88.5C 651.975,109.366 641.142,119.032 620.5,117.5C 620.5,110.167 620.5,102.833 620.5,95.5C 623.545,95.6582 626.379,94.9915 629,93.5C 627.65,79.8334 633.15,70.5001 645.5,65.5 Z"/></g>
<g><path style="opacity:0.211" fill="#2a2a2a" d="M 851.5,64.5 C 852.655,71.3209 852.821,78.3209 852,85.5C 851.617,86.056 851.117,86.3893 850.5,86.5C 850.236,79.1104 850.57,71.7771 851.5,64.5 Z"/></g>
<g><path style="opacity:0.607" fill="#fefefe" d="M 79.5,70.5 C 86.5322,69.719 90.3655,72.719 91,79.5C 86.5481,86.9349 81.3815,87.4349 75.5,81C 74.1667,79 74.1667,77 75.5,75C 77.0182,73.6494 78.3515,72.1494 79.5,70.5 Z"/></g>
<g><path style="opacity:0.598" fill="#fefefe" d="M 117.5,81.5 C 124.283,80.2133 128.283,82.88 129.5,89.5C 125.625,97.3751 120.459,98.3751 114,92.5C 112.662,87.9597 113.829,84.293 117.5,81.5 Z"/></g>
<g><path style="opacity:0.008" fill="#666666" d="M 564.5,83.5 C 565.338,83.8417 565.672,84.5084 565.5,85.5C 563.576,85.2893 563.243,84.6226 564.5,83.5 Z"/></g>
<g><path style="opacity:0.204" fill="#616161" d="M 708.5,84.5 C 709.338,84.8417 709.672,85.5084 709.5,86.5C 707.576,86.2893 707.243,85.6226 708.5,84.5 Z"/></g>
<g><path style="opacity:0.841" fill="#fcfcfc" d="M 924.5,91.5 C 937.111,90.9452 942.611,96.9452 941,109.5C 937.269,116.78 931.435,119.28 923.5,117C 915.259,111.949 913.425,105.115 918,96.5C 919.965,94.4497 922.132,92.783 924.5,91.5 Z"/></g>
<g><path style="opacity:0.84" fill="#fdfdfd" d="M 255.5,163.5 C 257.435,164.15 259.435,164.483 261.5,164.5C 261.665,167.85 261.498,171.183 261,174.5C 258.695,174.579 256.195,174.746 253.5,175C 250.968,178.401 251.302,181.568 254.5,184.5C 255.48,181.914 255.813,179.247 255.5,176.5C 258.518,176.335 261.518,176.502 264.5,177C 269.45,189.045 265.45,194.712 252.5,194C 245.456,191.611 241.789,186.611 241.5,179C 242.249,170.092 246.916,164.925 255.5,163.5 Z"/></g>
<g><path style="opacity:0.669" fill="#fefefe" d="M 444.5,163.5 C 450.898,162.252 453.232,164.585 451.5,170.5C 444.969,172.455 442.636,170.122 444.5,163.5 Z"/></g>
<g><path style="opacity:0.832" fill="#fefefe" d="M 329.5,164.5 C 332.5,164.5 335.5,164.5 338.5,164.5C 338.5,167.167 338.5,169.833 338.5,172.5C 339.5,172.5 340.5,172.5 341.5,172.5C 341.979,176.434 341.312,180.101 339.5,183.5C 340.242,184.287 341.075,184.953 342,185.5C 342.498,188.482 342.665,191.482 342.5,194.5C 335.348,194.179 331.181,190.512 330,183.5C 329.5,177.175 329.334,170.842 329.5,164.5 Z"/></g>
<g><path style="opacity:0.849" fill="#fefefe" d="M 394.5,164.5 C 397.5,164.5 400.5,164.5 403.5,164.5C 403.5,174.167 403.5,183.833 403.5,193.5C 400.5,193.5 397.5,193.5 394.5,193.5C 394.5,183.833 394.5,174.167 394.5,164.5 Z"/></g>
<g><path style="opacity:0.818" fill="#fefefe" d="M 428.5,164.5 C 431.833,164.5 435.167,164.5 438.5,164.5C 438.768,167.119 438.435,169.619 437.5,172C 438.448,172.483 439.448,172.649 440.5,172.5C 441.19,176.925 440.19,180.759 437.5,184C 438.448,184.483 439.448,184.649 440.5,184.5C 440.5,187.833 440.5,191.167 440.5,194.5C 435.09,194.951 431.59,192.618 430,187.5C 428.644,179.905 428.144,172.238 428.5,164.5 Z"/></g>
<g><path style="opacity:0.829" fill="#fefefe" d="M 536.5,164.5 C 538.167,164.5 539.833,164.5 541.5,164.5C 541.5,167.833 541.5,171.167 541.5,174.5C 537.5,175.167 537.5,175.833 541.5,176.5C 541.665,179.518 541.498,182.518 541,185.5C 539.989,186.337 538.822,186.67 537.5,186.5C 537.5,188.833 537.5,191.167 537.5,193.5C 534.5,193.5 531.5,193.5 528.5,193.5C 528.189,185.772 528.689,178.105 530,170.5C 531.436,167.558 533.603,165.558 536.5,164.5 Z"/></g>
<g><path style="opacity:0.834" fill="#fefefe" d="M 590.5,164.5 C 593.5,164.5 596.5,164.5 599.5,164.5C 599.5,167.167 599.5,169.833 599.5,172.5C 600.5,172.5 601.5,172.5 602.5,172.5C 602.979,176.434 602.312,180.101 600.5,183.5C 601.242,184.287 602.075,184.953 603,185.5C 603.498,188.482 603.665,191.482 603.5,194.5C 596.348,194.179 592.181,190.512 591,183.5C 590.5,177.175 590.334,170.842 590.5,164.5 Z"/></g>
<g><path style="opacity:0.85" fill="#fefefe" d="M 605.5,164.5 C 608.5,164.5 611.5,164.5 614.5,164.5C 614.5,167.167 614.5,169.833 614.5,172.5C 620.173,170.67 623.673,172.67 625,178.5C 625.499,183.489 625.666,188.489 625.5,193.5C 622.5,193.5 619.5,193.5 616.5,193.5C 615.833,177.5 615.167,177.5 614.5,193.5C 611.5,193.5 608.5,193.5 605.5,193.5C 605.5,183.833 605.5,174.167 605.5,164.5 Z"/></g>
<g><path style="opacity:0.826" fill="#fefefe" d="M 670.5,164.5 C 672.167,164.5 673.833,164.5 675.5,164.5C 675.5,167.833 675.5,171.167 675.5,174.5C 671.5,175.167 671.5,175.833 675.5,176.5C 675.665,179.518 675.498,182.518 675,185.5C 673.989,186.337 672.822,186.67 671.5,186.5C 671.5,188.833 671.5,191.167 671.5,193.5C 668.5,193.5 665.5,193.5 662.5,193.5C 662.189,185.772 662.689,178.105 664,170.5C 665.545,167.655 667.712,165.655 670.5,164.5 Z"/></g>
<g><path style="opacity:0.829" fill="#fefefe" d="M 700.5,164.5 C 703.167,164.5 705.833,164.5 708.5,164.5C 708.5,167.167 708.5,169.833 708.5,172.5C 709.833,172.5 711.167,172.5 712.5,172.5C 712.665,175.518 712.498,178.518 712,181.5C 708.534,183.181 708.7,184.181 712.5,184.5C 712.5,187.833 712.5,191.167 712.5,194.5C 708.15,194.543 704.65,192.877 702,189.5C 700.63,181.236 700.13,172.903 700.5,164.5 Z"/></g>
<g><path style="opacity:0.823" fill="#fefefe" d="M 276.5,171.5 C 278.167,171.5 279.833,171.5 281.5,171.5C 281.335,174.518 281.502,177.518 282,180.5C 285.509,172.162 291.342,169.996 299.5,174C 302.32,177.292 303.653,181.125 303.5,185.5C 300.813,185.336 298.146,185.503 295.5,186C 296.64,187.973 297.973,189.807 299.5,191.5C 288.692,196.945 282.525,193.611 281,181.5C 280.333,182.833 279.667,182.833 279,181.5C 277.576,185.297 277.076,189.297 277.5,193.5C 274.5,193.5 271.5,193.5 268.5,193.5C 268.283,187.768 268.783,182.101 270,176.5C 271.805,174.174 273.972,172.508 276.5,171.5 Z"/></g>
<g><path style="opacity:0.829" fill="#fefefe" d="M 314.5,171.5 C 319.497,171.365 323.33,173.365 326,177.5C 326.499,182.823 326.666,188.156 326.5,193.5C 323.833,193.5 321.167,193.5 318.5,193.5C 318.665,190.15 318.498,186.817 318,183.5C 316.598,181.027 315.098,181.027 313.5,183.5C 314.32,185.111 315.654,185.778 317.5,185.5C 317.5,188.5 317.5,191.5 317.5,194.5C 307.188,194.017 303.021,188.684 305,178.5C 307.086,174.555 310.253,172.221 314.5,171.5 Z"/></g>
<g><path style="opacity:0.853" fill="#fefefe" d="M 379.5,171.5 C 390.665,172.831 394.498,178.831 391,189.5C 385.075,195.592 378.908,195.926 372.5,190.5C 368.074,181.524 370.408,175.19 379.5,171.5 Z M 381.5,180.5 C 384.148,182.128 384.148,183.794 381.5,185.5C 378.839,183.828 378.839,182.161 381.5,180.5 Z"/></g>
<g><path style="opacity:0.846" fill="#fefefe" d="M 464.5,171.5 C 476.335,173.168 479.835,179.501 475,190.5C 469.725,195.259 464.225,195.593 458.5,191.5C 452.25,182.254 454.25,175.587 464.5,171.5 Z M 465.5,180.5 C 468.701,181.839 469.035,183.506 466.5,185.5C 463.14,184.209 462.806,182.543 465.5,180.5 Z"/></g>
<g><path style="opacity:0.842" fill="#fefefe" d="M 487.5,171.5 C 491.883,171.348 495.383,173.015 498,176.5C 499.217,182.101 499.717,187.768 499.5,193.5C 496.5,193.5 493.5,193.5 490.5,193.5C 489.833,177.5 489.167,177.5 488.5,193.5C 485.5,193.5 482.5,193.5 479.5,193.5C 479.149,187.738 479.649,182.072 481,176.5C 482.805,174.174 484.972,172.508 487.5,171.5 Z"/></g>
<g><path style="opacity:0.845" fill="#fefefe" d="M 552.5,171.5 C 564.965,173.724 568.132,180.39 562,191.5C 556.956,195.241 551.79,195.408 546.5,192C 541.943,186.879 541.443,181.379 545,175.5C 547.255,173.501 549.755,172.168 552.5,171.5 Z M 552.5,181.5 C 557.236,181.885 557.569,183.219 553.5,185.5C 551.824,184.272 551.491,182.939 552.5,181.5 Z"/></g>
<g><path style="opacity:0.821" fill="#fefefe" d="M 575.5,171.5 C 577.167,171.5 578.833,171.5 580.5,171.5C 580.665,174.85 580.498,178.183 580,181.5C 579,181.833 578,182.167 577,182.5C 576.501,186.152 576.335,189.818 576.5,193.5C 573.5,193.5 570.5,193.5 567.5,193.5C 567.283,187.768 567.783,182.101 569,176.5C 570.805,174.174 572.972,172.508 575.5,171.5 Z"/></g>
<g><path style="opacity:0.78" fill="#fefefe" d="M 637.5,171.5 C 646.307,171.974 650.64,176.641 650.5,185.5C 647.753,185.187 645.086,185.52 642.5,186.5C 643.833,188.167 645.167,189.833 646.5,191.5C 640.775,195.593 635.275,195.259 630,190.5C 625.359,181.138 627.859,174.805 637.5,171.5 Z"/></g>
<g><path style="opacity:0.815" fill="#fefefe" d="M 745.5,171.5 C 746.833,171.5 748.167,171.5 749.5,171.5C 749.5,175.167 749.5,178.833 749.5,182.5C 748.5,182.5 747.5,182.5 746.5,182.5C 746.5,186.167 746.5,189.833 746.5,193.5C 743.5,193.5 740.5,193.5 737.5,193.5C 737.334,188.489 737.501,183.489 738,178.5C 739.211,174.666 741.711,172.333 745.5,171.5 Z"/></g>
<g><path style="opacity:0.79" fill="#fefefe" d="M 759.5,171.5 C 768.677,171.677 773.01,176.343 772.5,185.5C 769.813,185.336 767.146,185.503 764.5,186C 770.355,190.77 769.521,193.603 762,194.5C 752.465,193.287 748.798,187.953 751,178.5C 752.851,174.843 755.684,172.51 759.5,171.5 Z"/></g>
<g><path style="opacity:0.836" fill="#fefefe" d="M 363.5,172.5 C 365.5,172.5 367.5,172.5 369.5,172.5C 369.665,175.518 369.498,178.518 369,181.5C 366.922,184.103 365.589,187.103 365,190.5C 361.795,193.432 357.962,194.765 353.5,194.5C 352.782,190.097 353.949,186.43 357,183.5C 357.242,178.517 359.408,174.85 363.5,172.5 Z"/></g>
<g><path style="opacity:0.851" fill="#fdfdfd" d="M 407.5,172.5 C 410.167,172.5 412.833,172.5 415.5,172.5C 415.069,177.032 415.569,181.365 417,185.5C 417.499,181.179 417.666,176.846 417.5,172.5C 420.5,172.5 423.5,172.5 426.5,172.5C 426.666,177.844 426.499,183.177 426,188.5C 422.184,194.742 417.017,196.075 410.5,192.5C 409.667,191.5 408.833,190.5 408,189.5C 407.501,183.843 407.334,178.176 407.5,172.5 Z"/></g>
<g><path style="opacity:0.835" fill="#fefefe" d="M 443.5,172.5 C 446.5,172.5 449.5,172.5 452.5,172.5C 452.5,179.5 452.5,186.5 452.5,193.5C 449.5,193.5 446.5,193.5 443.5,193.5C 443.5,186.5 443.5,179.5 443.5,172.5 Z"/></g>
<g><path style="opacity:0.84" fill="#fefefe" d="M 510.5,172.5 C 512.5,172.5 514.5,172.5 516.5,172.5C 516.665,175.518 516.498,178.518 516,181.5C 513.922,184.103 512.589,187.103 512,190.5C 508.795,193.432 504.962,194.765 500.5,194.5C 499.782,190.097 500.949,186.43 504,183.5C 504.16,178.496 506.326,174.829 510.5,172.5 Z"/></g>
<g><path style="opacity:0.842" fill="#fefefe" d="M 677.5,172.5 C 680.5,172.5 683.5,172.5 686.5,172.5C 687.167,189.833 687.833,189.833 688.5,172.5C 691.5,172.5 694.5,172.5 697.5,172.5C 697.666,177.511 697.499,182.511 697,187.5C 694.575,193.795 690.075,195.962 683.5,194C 681.43,193.052 679.93,191.552 679,189.5C 677.783,183.899 677.283,178.232 677.5,172.5 Z"/></g>
<g><path style="opacity:0.816" fill="#fefefe" d="M 715.5,172.5 C 718.5,172.5 721.5,172.5 724.5,172.5C 724.334,176.846 724.501,181.179 725,185.5C 725.5,185 726,184.5 726.5,184C 725.54,180.27 725.207,176.437 725.5,172.5C 728.5,172.5 731.5,172.5 734.5,172.5C 734.666,177.844 734.499,183.177 734,188.5C 731.081,194.025 726.581,195.858 720.5,194C 719,192.5 717.5,191 716,189.5C 715.501,183.843 715.334,178.176 715.5,172.5 Z"/></g>
</svg>
